<?xml version="1.0" encoding="UTF-8"?>
<!DOCTYPE svg PUBLIC "-//W3C//DTD SVG 1.1//EN" "http://www.w3.org/Graphics/SVG/1.1/DTD/svg11.dtd">
<svg xmlns="http://www.w3.org/2000/svg" version="1.1" width="200px" height="200px" style="shape-rendering:geometricPrecision; text-rendering:geometricPrecision; image-rendering:optimizeQuality; fill-rule:evenodd; clip-rule:evenodd" xmlns:xlink="http://www.w3.org/1999/xlink">
<g><path style="opacity:0.953" fill="#6ebcc0" d="M 32.5,83.5 C 32.6602,85.1992 32.4935,86.8659 32,88.5C 31.6174,87.944 31.1174,87.6107 30.5,87.5C 30.67,86.1779 30.3366,85.0113 29.5,84C 23.8042,83.8299 18.1376,83.3299 12.5,82.5C 13.0253,81.8076 13.6919,81.3076 14.5,81C 19.8333,80.3333 25.1667,80.3333 30.5,81C 31.3805,81.7083 32.0472,82.5416 32.5,83.5 Z"/></g>
<g><path style="opacity:0.937" fill="#3dbbc0" d="M 98.5,82.5 C 95.5,82.5 92.5,82.5 89.5,82.5C 89.5,85.8333 89.5,89.1667 89.5,92.5C 91.8333,93.1667 94.1667,93.8333 96.5,94.5C 94.1667,94.5 91.8333,94.5 89.5,94.5C 89.5,96.5 89.5,98.5 89.5,100.5C 88.8333,100.5 88.1667,100.5 87.5,100.5C 87.5,94.1667 87.5,87.8333 87.5,81.5C 91.9489,81.1641 95.6155,81.4974 98.5,82.5 Z"/></g>
<g><path style="opacity:0.992" fill="#94c8ca" d="M 103.5,85.5 C 103.657,86.8734 103.49,88.2068 103,89.5C 102.768,88.2625 102.268,87.2625 101.5,86.5C 100.5,85.5 99.5,84.5 98.5,83.5C 98.5,83.1667 98.5,82.8333 98.5,82.5C 95.6155,81.4974 91.9489,81.1641 87.5,81.5C 87.5,87.8333 87.5,94.1667 87.5,100.5C 86.5093,94.021 86.176,87.3543 86.5,80.5C 91.1785,80.3342 95.8452,80.5008 100.5,81C 102.141,82.129 103.141,83.629 103.5,85.5 Z"/></g>
<g><path style="opacity:0.231" fill="#bdcece" d="M 98.5,82.5 C 98.5,82.8333 98.5,83.1667 98.5,83.5C 95.8333,83.5 93.1667,83.5 90.5,83.5C 90.5,86.5 90.5,89.5 90.5,92.5C 90.1667,92.5 89.8333,92.5 89.5,92.5C 89.5,89.1667 89.5,85.8333 89.5,82.5C 92.5,82.5 95.5,82.5 98.5,82.5 Z"/></g>
<g><path style="opacity:0.059" fill="#fefffe" d="M 9.5,85.5 C 9.5,87.1667 9.5,88.8333 9.5,90.5C 7.07764,88.7145 7.07764,87.0478 9.5,85.5 Z"/></g>
<g><path style="opacity:0.06" fill="#e3e7e8" d="M 11.5,84.5 C 12.29,85.6085 12.79,86.9419 13,88.5C 13.3333,88.1667 13.6667,87.8333 14,87.5C 15.3024,88.0848 16.469,88.7515 17.5,89.5C 15.5,89.5 13.5,89.5 11.5,89.5C 11.5,87.8333 11.5,86.1667 11.5,84.5 Z"/></g>
<g><path style="opacity:1" fill="#91c7ca" d="M 32.5,83.5 C 33.6567,86.0259 33.6567,88.6926 32.5,91.5C 31.8333,91.1667 31.1667,90.8333 30.5,90.5C 28.7354,89.5386 26.7354,89.2053 24.5,89.5C 26.3736,88.7148 28.3736,88.0482 30.5,87.5C 31.1174,87.6107 31.6174,87.944 32,88.5C 32.4935,86.8659 32.6602,85.1992 32.5,83.5 Z"/></g>
<g><path style="opacity:1" fill="#77c0c3" d="M 40.5,91.5 C 40.1583,90.6618 39.4916,90.3284 38.5,90.5C 38.3284,89.5084 38.6618,88.8417 39.5,88.5C 41.4352,87.8505 43.4352,87.5172 45.5,87.5C 45.6882,89.1033 45.1882,90.4366 44,91.5C 43.0138,90.8288 41.8471,90.8288 40.5,91.5 Z"/></g>
<g><path style="opacity:0.397" fill="#abc3c4" d="M 51.5,88.5 C 49.631,90.6353 48.9644,93.3019 49.5,96.5C 48.5233,93.7131 48.19,90.7131 48.5,87.5C 49.791,87.2627 50.791,87.596 51.5,88.5 Z"/></g>
<g><path style="opacity:0.782" fill="#56babe" d="M 51.5,88.5 C 51.3359,91.1873 51.5026,93.854 52,96.5C 52.3826,97.056 52.8826,97.3893 53.5,97.5C 54.8333,98.1667 56.1667,98.8333 57.5,99.5C 55.7116,100.622 53.7116,100.789 51.5,100C 50.1772,99.1841 49.5106,98.0174 49.5,96.5C 48.9644,93.3019 49.631,90.6353 51.5,88.5 Z"/></g>
<g><path style="opacity:0.984" fill="#90c5c7" d="M 66.5,88.5 C 69.122,86.9915 71.4553,87.4915 73.5,90C 72.9747,90.6924 72.3081,91.1924 71.5,91.5C 70.2638,90.7542 68.9305,90.4208 67.5,90.5C 68.2625,89.7321 69.2625,89.2321 70.5,89C 69.2068,88.51 67.8734,88.3433 66.5,88.5 Z"/></g>
<g><path style="opacity:1" fill="#7ec2c4" d="M 103.5,85.5 C 105.141,89.2376 104.141,92.2376 100.5,94.5C 100.5,93.1667 99.8333,92.5 98.5,92.5C 100.385,90.9468 101.385,88.9468 101.5,86.5C 102.268,87.2625 102.768,88.2625 103,89.5C 103.49,88.2068 103.657,86.8734 103.5,85.5 Z"/></g>
<g><path style="opacity:1" fill="#92c7c9" d="M 135.5,88.5 C 133.801,88.3398 132.134,88.5065 130.5,89C 131.737,89.2321 132.737,89.7321 133.5,90.5C 130.303,91.1124 128.969,93.1124 129.5,96.5C 129.167,96.5 128.833,96.5 128.5,96.5C 128.5,94.1667 128.5,91.8333 128.5,89.5C 129.312,88.0069 130.645,87.3402 132.5,87.5C 133.726,87.5195 134.726,87.8529 135.5,88.5 Z"/></g>
<g><path style="opacity:0.941" fill="#59bcc1" d="M 135.5,88.5 C 135.833,88.5 136.167,88.5 136.5,88.5C 136.737,89.791 136.404,90.791 135.5,91.5C 134.833,91.1667 134.167,90.8333 133.5,90.5C 132.737,89.7321 131.737,89.2321 130.5,89C 132.134,88.5065 133.801,88.3398 135.5,88.5 Z"/></g>
<g><path style="opacity:0.988" fill="#72bec1" d="M 164.5,88.5 C 162.801,88.3398 161.134,88.5065 159.5,89C 161.058,89.21 162.391,89.71 163.5,90.5C 161.447,90.4021 159.78,91.0687 158.5,92.5C 157.842,93.3984 157.176,94.3984 156.5,95.5C 155.614,94.675 155.281,93.675 155.5,92.5C 157.067,87.7507 160.067,86.4174 164.5,88.5 Z"/></g>
<g><path style="opacity:0.792" fill="#7fc3c6" d="M 174.5,88.5 C 177.744,86.8208 179.744,87.8208 180.5,91.5C 179.209,91.7373 178.209,91.404 177.5,90.5C 176.71,89.5987 175.71,88.9321 174.5,88.5 Z"/></g>
<g><path style="opacity:0.998" fill="#38b6bb" d="M 11.5,89.5 C 13.5,89.5 15.5,89.5 17.5,89.5C 19.8333,89.5 22.1667,89.5 24.5,89.5C 26.7354,89.2053 28.7354,89.5386 30.5,90.5C 30.5,91.1667 30.1667,91.5 29.5,91.5C 23.5,91.5 17.5,91.5 11.5,91.5C 11.5,90.8333 11.5,90.1667 11.5,89.5 Z"/></g>
<g><path style="opacity:0.518" fill="#9bbfc1" d="M 60.5,88.5 C 58.9016,90.8567 57.9016,93.5234 57.5,96.5C 57.5,93.5 57.5,90.5 57.5,87.5C 58.791,87.2627 59.791,87.596 60.5,88.5 Z"/></g>
<g><path style="opacity:0.716" fill="#6abec1" d="M 60.5,88.5 C 60.6646,91.5184 60.498,94.5184 60,97.5C 59.5831,98.756 58.7498,99.4226 57.5,99.5C 56.1667,98.8333 54.8333,98.1667 53.5,97.5C 54.9587,97.5674 56.2921,97.2341 57.5,96.5C 57.9016,93.5234 58.9016,90.8567 60.5,88.5 Z"/></g>
<g><path style="opacity:0.522" fill="#8bb3b4" d="M 150.5,98.5 C 150.665,95.1501 150.498,91.8168 150,88.5C 149.817,91.3647 149.317,94.0314 148.5,96.5C 148.5,93.5 148.5,90.5 148.5,87.5C 149.5,87.5 150.5,87.5 151.5,87.5C 151.815,91.3714 151.482,95.0381 150.5,98.5 Z"/></g>
<g><path style="opacity:0.999" fill="#31b1b6" d="M 11.5,84.5 C 11.5,86.1667 11.5,87.8333 11.5,89.5C 11.5,90.1667 11.5,90.8333 11.5,91.5C 11.5,93.8333 11.5,96.1667 11.5,98.5C 11.1583,99.3382 10.4916,99.6716 9.5,99.5C 9.5,96.5 9.5,93.5 9.5,90.5C 9.5,88.8333 9.5,87.1667 9.5,85.5C 9.71073,83.5759 10.3774,83.2426 11.5,84.5 Z"/></g>
<g><path style="opacity:0.134" fill="#c6d2d2" d="M 11.5,91.5 C 17.5,91.5 23.5,91.5 29.5,91.5C 29.5,91.8333 29.5,92.1667 29.5,92.5C 23.8333,92.5 18.1667,92.5 12.5,92.5C 12.5,94.1667 12.5,95.8333 12.5,97.5C 18.1667,97.5 23.8333,97.5 29.5,97.5C 23.69,98.4896 17.69,98.8229 11.5,98.5C 11.5,96.1667 11.5,93.8333 11.5,91.5 Z"/></g>
<g><path style="opacity:1" fill="#4fb8bd" d="M 164.5,88.5 C 165.209,89.404 166.209,89.7373 167.5,89.5C 167.5,92.5 167.5,95.5 167.5,98.5C 165.952,98.1788 165.285,97.1788 165.5,95.5C 165.608,93.4862 164.942,91.8195 163.5,90.5C 162.391,89.71 161.058,89.21 159.5,89C 161.134,88.5065 162.801,88.3398 164.5,88.5 Z"/></g>
<g><path style="opacity:0.278" fill="#f0f2f2" d="M 176.5,90.5 C 176.5,91.1667 176.5,91.8333 176.5,92.5C 173.833,91.8333 173.833,91.1667 176.5,90.5 Z"/></g>
<g><path style="opacity:0.729" fill="#85c0c2" d="M 39.5,88.5 C 38.6618,88.8417 38.3284,89.5084 38.5,90.5C 38.3354,93.5184 38.502,96.5184 39,99.5C 39.1862,96.9644 39.6862,94.631 40.5,92.5C 40.5,95.1667 40.5,97.8333 40.5,100.5C 39.5,100.5 38.5,100.5 37.5,100.5C 37.1744,96.1161 37.5078,91.7828 38.5,87.5C 39.1067,87.6236 39.44,87.9569 39.5,88.5 Z"/></g>
<g><path style="opacity:0.991" fill="#38bcc1" d="M 38.5,90.5 C 39.4916,90.3284 40.1583,90.6618 40.5,91.5C 40.5,91.8333 40.5,92.1667 40.5,92.5C 39.6862,94.631 39.1862,96.9644 39,99.5C 38.502,96.5184 38.3354,93.5184 38.5,90.5 Z"/></g>
<g><path style="opacity:0.918" fill="#79c1c4" d="M 66.5,88.5 C 67.8734,88.3433 69.2068,88.51 70.5,89C 69.2625,89.2321 68.2625,89.7321 67.5,90.5C 69.1507,92.1238 71.1507,93.4571 73.5,94.5C 74.6838,96.467 74.3505,98.1336 72.5,99.5C 72.6602,97.8008 72.4935,96.1341 72,94.5C 71.7679,95.7375 71.2679,96.7375 70.5,97.5C 67.7513,96.1746 65.4179,94.1746 63.5,91.5C 63.8793,89.7869 64.8793,88.7869 66.5,88.5 Z"/></g>
<g><path style="opacity:0.714" fill="#87c0c2" d="M 158.5,99.5 C 160.5,99.5 162.5,99.5 164.5,99.5C 165.791,99.7373 166.791,99.404 167.5,98.5C 167.5,95.5 167.5,92.5 167.5,89.5C 166.209,89.7373 165.209,89.404 164.5,88.5C 165.847,87.8288 167.014,87.8288 168,88.5C 168.499,92.4862 168.666,96.4862 168.5,100.5C 164.958,100.813 161.625,100.479 158.5,99.5 Z"/></g>
<g><path style="opacity:1" fill="#7dc5c8" d="M 30.5,90.5 C 31.1667,90.8333 31.8333,91.1667 32.5,91.5C 33.9468,92.1342 34.6134,93.3009 34.5,95C 34.6134,96.6991 33.9468,97.8658 32.5,98.5C 32.5,97.1667 31.8333,96.5 30.5,96.5C 30.7678,94.901 30.4345,93.5676 29.5,92.5C 29.5,92.1667 29.5,91.8333 29.5,91.5C 30.1667,91.5 30.5,91.1667 30.5,90.5 Z"/></g>
<g><path style="opacity:1" fill="#66b6b9" d="M 89.5,92.5 C 89.8333,92.5 90.1667,92.5 90.5,92.5C 93.1667,92.5 95.8333,92.5 98.5,92.5C 99.8333,92.5 100.5,93.1667 100.5,94.5C 99.8333,94.5 99.5,94.8333 99.5,95.5C 98.7611,95.369 98.0944,95.5357 97.5,96C 98.2524,96.6708 98.5858,97.5041 98.5,98.5C 97.0937,98.0269 96.427,97.0269 96.5,95.5C 96.5,95.1667 96.5,94.8333 96.5,94.5C 94.1667,93.8333 91.8333,93.1667 89.5,92.5 Z"/></g>
<g><path style="opacity:1" fill="#65bec1" d="M 174.5,88.5 C 175.71,88.9321 176.71,89.5987 177.5,90.5C 177.167,90.5 176.833,90.5 176.5,90.5C 173.833,91.1667 173.833,91.8333 176.5,92.5C 177.66,94.2027 176.993,94.8693 174.5,94.5C 171.756,93.9283 170.923,92.2617 172,89.5C 172.671,88.7476 173.504,88.4142 174.5,88.5 Z"/></g>
<g><path style="opacity:0.486" fill="#b6cacb" d="M 96.5,94.5 C 96.5,94.8333 96.5,95.1667 96.5,95.5C 94.4588,95.8541 92.6255,95.8541 91,95.5C 90.8019,97.3817 90.3019,99.0484 89.5,100.5C 89.5,98.5 89.5,96.5 89.5,94.5C 91.8333,94.5 94.1667,94.5 96.5,94.5 Z"/></g>
<g><path style="opacity:1" fill="#60bcc0" d="M 72.5,99.5 C 69.4984,101.108 66.8318,100.775 64.5,98.5C 64.8076,97.6919 65.3076,97.0253 66,96.5C 67.3561,97.3802 68.8561,97.7135 70.5,97.5C 71.2679,96.7375 71.7679,95.7375 72,94.5C 72.4935,96.1341 72.6602,97.8008 72.5,99.5 Z"/></g>
<g><path style="opacity:1" fill="#73c2c5" d="M 128.5,89.5 C 128.5,91.8333 128.5,94.1667 128.5,96.5C 128.5,97.5 128.5,98.5 128.5,99.5C 124.5,96.1667 124.5,92.8333 128.5,89.5 Z"/></g>
<g><path style="opacity:1" fill="#a0cdcf" d="M 155.5,92.5 C 155.281,93.675 155.614,94.675 156.5,95.5C 157.176,94.3984 157.842,93.3984 158.5,92.5C 158.366,94.2915 158.699,95.9582 159.5,97.5C 158.209,97.2627 157.209,97.596 156.5,98.5C 154.539,96.68 154.206,94.68 155.5,92.5 Z"/></g>
<g><path style="opacity:1" fill="#78c1c4" d="M 136.5,88.5 C 139.236,90.8579 140.07,93.8579 139,97.5C 138.292,98.3805 137.458,99.0472 136.5,99.5C 136.672,98.5084 136.338,97.8417 135.5,97.5C 136.641,95.4513 136.641,93.4513 135.5,91.5C 136.404,90.791 136.737,89.791 136.5,88.5 Z"/></g>
<g><path style="opacity:0.988" fill="#69bec2" d="M 176.5,92.5 C 180.829,92.7932 182.163,94.7932 180.5,98.5C 179.833,97.5 179.167,96.5 178.5,95.5C 176.901,95.7678 175.568,95.4345 174.5,94.5C 176.993,94.8693 177.66,94.2027 176.5,92.5 Z"/></g>
<g><path style="opacity:1" fill="#71c2c5" d="M 99.5,95.5 C 101.5,97.1667 103.5,98.8333 105.5,100.5C 105.5,101.833 104.833,102.5 103.5,102.5C 101.251,101.92 99.5846,100.587 98.5,98.5C 98.5858,97.5041 98.2524,96.6708 97.5,96C 98.0944,95.5357 98.7611,95.369 99.5,95.5 Z"/></g>
<g><path style="opacity:1" fill="#4ebdc1" d="M 159.5,97.5 C 161.167,98.1667 162.833,98.8333 164.5,99.5C 162.5,99.5 160.5,99.5 158.5,99.5C 157.508,99.6716 156.842,99.3382 156.5,98.5C 157.209,97.596 158.209,97.2627 159.5,97.5 Z"/></g>
<g><path style="opacity:0.992" fill="#7ac2c4" d="M 165.5,95.5 C 165.285,97.1788 165.952,98.1788 167.5,98.5C 166.791,99.404 165.791,99.7373 164.5,99.5C 162.833,98.8333 161.167,98.1667 159.5,97.5C 161.886,97.7413 163.886,97.0746 165.5,95.5 Z"/></g>
<g><path style="opacity:1" fill="#55bdc1" d="M 30.5,96.5 C 31.8333,96.5 32.5,97.1667 32.5,98.5C 32.3893,99.1174 32.056,99.6174 31.5,100C 23.9882,100.822 16.6549,100.655 9.5,99.5C 10.4916,99.6716 11.1583,99.3382 11.5,98.5C 17.69,98.8229 23.69,98.4896 29.5,97.5C 30.1667,97.5 30.5,97.1667 30.5,96.5 Z"/></g>
<g><path style="opacity:1" fill="#67bdc1" d="M 128.5,96.5 C 128.833,96.5 129.167,96.5 129.5,96.5C 131.379,97.3414 133.379,97.6747 135.5,97.5C 136.338,97.8417 136.672,98.5084 136.5,99.5C 133.939,100.767 131.272,100.767 128.5,99.5C 128.5,98.5 128.5,97.5 128.5,96.5 Z"/></g>
<g><path style="opacity:1" fill="#76c1c4" d="M 145.5,98.5 C 144.833,99.1667 144.167,99.8333 143.5,100.5C 140.572,99.363 140.238,98.0296 142.5,96.5C 143.518,97.1925 144.518,97.8592 145.5,98.5 Z"/></g>
<g><path style="opacity:1" fill="#66bfc3" d="M 150.5,98.5 C 148.735,101.449 146.402,102.115 143.5,100.5C 144.167,99.8333 144.833,99.1667 145.5,98.5C 147.027,98.573 148.027,97.9063 148.5,96.5C 149.317,94.0314 149.817,91.3647 150,88.5C 150.498,91.8168 150.665,95.1501 150.5,98.5 Z"/></g>
<g><path style="opacity:1" fill="#84c3c5" d="M 178.5,95.5 C 179.167,96.5 179.833,97.5 180.5,98.5C 179.508,100.026 178.008,100.693 176,100.5C 172.552,101.061 171.385,99.8943 172.5,97C 173.803,96.7902 175.136,96.9569 176.5,97.5C 177.713,97.2528 178.38,96.5862 178.5,95.5 Z"/></g>
<g><path style="opacity:1" fill="#81c4c6" d="M 105.5,100.5 C 106.872,101.512 108.205,102.512 109.5,103.5C 108.209,103.263 107.209,103.596 106.5,104.5C 104.973,104.573 103.973,103.906 103.5,102.5C 104.833,102.5 105.5,101.833 105.5,100.5 Z"/></g>
<g><path style="opacity:0.995" fill="#79c0c3" d="M 109.5,103.5 C 111.403,103.796 113.07,104.463 114.5,105.5C 112.007,105.131 111.34,105.797 112.5,107.5C 110.181,107.008 108.181,106.008 106.5,104.5C 107.209,103.596 108.209,103.263 109.5,103.5 Z"/></g>
<g><path style="opacity:1" fill="#81c3c6" d="M 114.5,105.5 C 116.099,105.232 117.432,105.566 118.5,106.5C 116.801,106.34 115.134,106.506 113.5,107C 114.737,107.232 115.737,107.732 116.5,108.5C 114.901,108.768 113.568,108.434 112.5,107.5C 111.34,105.797 112.007,105.131 114.5,105.5 Z"/></g>
<g><path style="opacity:1" fill="#57bec2" d="M 118.5,106.5 C 121.713,106.19 124.713,106.523 127.5,107.5C 124.038,108.482 120.371,108.815 116.5,108.5C 115.737,107.732 114.737,107.232 113.5,107C 115.134,106.506 116.801,106.34 118.5,106.5 Z"/></g>
<g><path style="opacity:0.714" fill="#97bfc1" d="M 127.5,107.5 C 128.043,107.56 128.376,107.893 128.5,108.5C 124.351,109.809 120.351,109.809 116.5,108.5C 120.371,108.815 124.038,108.482 127.5,107.5 Z"/></g>
</svg>
